<svg xmlns="http://www.w3.org/2000/svg" xmlns:xlink="http://www.w3.org/1999/xlink" fill="none" version="1.1" width="32" height="31" viewBox="0 0 32 31"><g><path d="M5,3L5,5Q5.0000005,5.1473806,5.0144463,5.2940514Q5.0288916,5.4407225,5.0576439,5.585270899999999Q5.0863962,5.7298198,5.129179,5.8708541Q5.1719608,6.0118884999999995,5.2283611,6.1480501Q5.2847614,6.2842120999999995,5.3542361,6.4141903Q5.4237108,6.5441682,5.5055904,6.6667103999999995Q5.587471,6.7892532,5.6809688,6.9031801Q5.7744656,7.0171065,5.8786793,7.1213202Q5.9828935,7.2255344,6.0968199,7.3190317Q6.2107468,7.4125285,6.3332887,7.4944086Q6.4558315,7.5762892,6.5858097,7.6457639Q6.7157879,7.7152386,6.8519492,7.7716384Q6.9881115,7.8280387,7.1291461,7.870821Q7.2701807,7.9136038,7.4147286,7.9423561Q7.5592775,7.9711089,7.7059488,7.9855547Q7.8526196,8,8,8Q8.1473808,8,8.2940512,7.9855547Q8.4407215,7.9711084,8.5852699,7.9423556Q8.7298193,7.9136033,8.8708534,7.870821Q9.0118876,7.8280387,9.1480484,7.7716384Q9.2842112,7.7152386,9.4141893,7.6457644Q9.5441685,7.5762892,9.6667099,7.4944086Q9.7892532,7.4125285,9.9031792,7.3190312Q10.017106,7.2255344,10.121319,7.1213202Q10.225533,7.0171065,10.319031,6.9031799Q10.412528,6.7892532,10.494408,6.6667106Q10.576288,6.5441685,10.645762,6.4141903Q10.715237,6.2842120999999995,10.771637,6.1480501Q10.828037,6.0118884999999995,10.870821,5.8708541Q10.913603,5.7298198,10.942354,5.585270899999999Q10.971107,5.4407225,10.985554,5.2940515999999995Q11,5.1473806,11,5L11,3L22,3L22,5Q22,5.1473806,22.014446,5.2940514Q22.028893,5.4407225,22.057642,5.585270899999999Q22.086395,5.7298198,22.129179,5.8708541Q22.171961,6.0118884999999995,22.228359,6.1480501Q22.28476,6.2842120999999995,22.354235,6.4141903Q22.42371,6.5441682,22.505589,6.6667103999999995Q22.587471,6.7892532,22.680969,6.9031801Q22.774464,7.0171065,22.878677,7.1213202Q22.982891,7.2255344,23.096819,7.3190317Q23.210745,7.4125285,23.333286,7.4944086Q23.45583,7.5762892,23.585808,7.6457639Q23.715786,7.7152386,23.851948,7.7716384Q23.988111,7.8280387,24.129147,7.870821Q24.27018,7.9136038,24.414728,7.9423561Q24.559278,7.9711089,24.705948,7.9855547Q24.852619,8,25,8Q25.147381,8,25.29405,7.9855547Q25.44072,7.9711084,25.585268,7.9423556Q25.729818,7.9136033,25.870853,7.870821Q26.011887,7.8280387,26.148046,7.7716384Q26.28421,7.7152386,26.414186,7.6457644Q26.544165,7.5762892,26.666706,7.4944086Q26.789249,7.4125285,26.903177,7.3190312Q27.017105,7.2255344,27.121319,7.1213202Q27.225534,7.0171065,27.319031,6.9031799Q27.412527,6.7892532,27.494404,6.6667106Q27.576286,6.5441685,27.645761,6.4141903Q27.715237,6.2842120999999995,27.771635,6.1480501Q27.828037,6.0118884999999995,27.870821,5.8708541Q27.913603,5.7298198,27.942354,5.585270899999999Q27.971107,5.4407225,27.985554,5.2940515999999995Q28,5.1473806,28,5L28,3L30,3Q30.098253,3,30.196033,3.009630546Q30.293812,3.019261092,30.390177,3.038429435Q30.486544,3.057597782,30.580566,3.086119324Q30.674589,3.11464086,30.765362,3.15224092Q30.856138,3.18984097,30.942791,3.23615745Q31.029442,3.28247392,31.111137,3.33706075Q31.192833,3.39164761,31.268784,3.45397907Q31.344736,3.51631057,31.414211,3.5857864Q31.483688,3.65526235,31.546021,3.7312134500000003Q31.608353,3.80716461,31.662937,3.88885951Q31.717525,3.9705544699999997,31.763842,4.0572064Q31.810158,4.1438584,31.847755,4.2346330000000005Q31.885357,4.3254076,31.913879,4.4194306Q31.942402,4.5134535,31.961569,4.6098193Q31.98074,4.7061851,31.99037,4.8039658Q32,4.9017464,32,5L32,29Q32,29.098255,31.990372,29.196037Q31.98074,29.293816,31.961567,29.390179Q31.942402,29.486546,31.913879,29.58057Q31.885357,29.674593,31.847755,29.765366Q31.810158,29.85614,31.763842,29.942791Q31.717525,30.029444,31.662937,30.111137Q31.608353,30.192833,31.546021,30.268785Q31.483688,30.344736,31.414211,30.414211Q31.344736,30.483688,31.268785,30.546021Q31.192833,30.608351,31.111137,30.662937Q31.029442,30.717525,30.942791,30.76384Q30.856138,30.810158,30.765362,30.847755Q30.674589,30.885357,30.580566,30.913879Q30.486544,30.942402,30.390177,30.961569Q30.293812,30.98074,30.196033,30.990368Q30.098253,31,30,31L2,31Q1.9017464,31,1.8039658,30.990368Q1.7061851,30.980738,1.6098193,30.961567Q1.5134535,30.942402,1.4194306,30.913879Q1.3254076,30.885357,1.234633,30.847755Q1.1438584,30.810158,1.0572064,30.76384Q0.97055447,30.717525,0.88885945,30.662937Q0.80716455,30.608351,0.73121345,30.546021Q0.65526235,30.483688,0.5857864,30.414211Q0.51631057,30.344736,0.4539791,30.268784Q0.39164761,30.192833,0.33706075,30.111135Q0.28247392,30.029442,0.23615746,29.942791Q0.18984097,29.856138,0.15224092,29.765364Q0.11464086,29.674591,0.086119324,29.580568Q0.057597782,29.486546,0.038429435,29.390179Q0.019261092,29.293816,0.009630546,29.196035Q0,29.098255,0,29L0,5Q0,4.9017464,0.009630546,4.8039658Q0.019261092,4.7061851,0.038429435,4.6098193Q0.057597782,4.5134535,0.086119324,4.4194306Q0.11464086,4.3254076,0.15224092,4.2346330000000005Q0.18984097,4.1438584,0.23615745,4.0572064Q0.28247392,3.9705544699999997,0.33706075,3.88885945Q0.39164761,3.80716455,0.45397907,3.7312134500000003Q0.51631057,3.65526235,0.5857864,3.5857864Q0.65526235,3.51631057,0.73121345,3.4539791Q0.80716461,3.39164761,0.88885951,3.33706075Q0.97055447,3.28247392,1.0572064,3.23615746Q1.1438584,3.18984097,1.234633,3.15224092Q1.3254076,3.11464086,1.4194306,3.086119324Q1.5134535,3.057597782,1.6098193,3.038429435Q1.7061851,3.019261092,1.8039658,3.009630546Q1.9017464,3,2,3L5,3Z" fill-rule="evenodd" fill="#3D3D3D" fill-opacity="1"/></g><rect x="3" y="10" width="26" height="18" rx="2" fill="#FFFFFF" fill-opacity="1"/><rect x="6" y="0" width="4" height="7" rx="2" fill="#3D3D3D" fill-opacity="1"/><rect x="23" y="0" width="4" height="7" rx="2" fill="#3D3D3D" fill-opacity="1"/><rect x="19" y="14" width="5" height="4" rx="1" fill="#3D3D3D" fill-opacity="1"/><rect x="19" y="21" width="5" height="4" rx="1" fill="#3D3D3D" fill-opacity="1"/><rect x="9" y="21" width="5" height="4" rx="1" fill="#3D3D3D" fill-opacity="1"/><rect x="9" y="14" width="5" height="4" rx="1" fill="#3D3D3D" fill-opacity="1"/></svg>